<svg id="e0IBOPLwNnU1" xmlns="http://www.w3.org/2000/svg" xmlns:xlink="http://www.w3.org/1999/xlink" viewBox="0 0 640 480" shape-rendering="geometricPrecision" text-rendering="geometricPrecision"><rect class="rectangle" width="20.112953" height="103.188192" rx="0" ry="0" transform="translate(289.83057 299.070872)" fill="#d2dbed" stroke-width="0"/><rect class="rectangle" width="399.635635" height="198.506105" rx="0" ry="0" transform="translate(99.194753 100.564767)" fill="#d2dbed" stroke-width="0"/><rect class="rectangle" width="372.526872" height="178.39315" rx="0" ry="0" transform="translate(114.060849 110.184004)" fill="#fff" stroke-width="0"/><line x1="0" y1="-89.196575" x2="0" y2="89.196575" transform="translate(114.060849 199.380579)" fill="none" stroke="#3f5787" stroke-width="3"/><line x1="-186.263436" y1="0" x2="186.263436" y2="0" transform="translate(300.324285 288.577154)" fill="none" stroke="#3f5787" stroke-width="3"/><line x1="0" y1="89.196575" x2="0" y2="-89.196575" transform="translate(486.587721 199.380579)" fill="none" stroke="#3f5787" stroke-width="3"/><line x1="-186.263436" y1="0" x2="186.263436" y2="0" transform="translate(300.324285 110.184004)" fill="none" stroke="#3f5787" stroke-width="3"/><g transform="translate(24.922569 0)"><rect class="rectangle" width="49.845145" height="9.619239" rx="0" ry="0" transform="translate(290.705047 79.577338)" fill="#d2dbed" stroke-width="0"/><rect class="rectangle" width="51.594097" height="9.619239" rx="0" ry="0" transform="translate(208.504281 79.577338)" fill="#d2dbed" stroke-width="0"/><rect class="rectangle" width="48.970668" height="9.619239" rx="0" ry="0" transform="translate(370.282383 79.577338)" fill="#d2dbed" stroke-width="0"/><rect class="rectangle" width="48.970669" height="9.619239" rx="0" ry="0" transform="translate(130.675897 79.577337)" fill="#FF6060" stroke-width="0"/></g><line x1="-24.485334" y1="0" x2="24.485334" y2="0" transform="translate(180.083801 79.577338)" fill="none" stroke="#3f5787" stroke-width="3"/><line x1="-24.485334" y1="0" x2="24.485334" y2="0" transform="translate(180.083801 89.196577)" fill="none" stroke="#3f5787" stroke-width="3"/><line x1="0" y1="-4.809619" x2="0" y2="4.80962" transform="translate(155.598467 84.386958)" fill="none" stroke="#3f5787" stroke-width="3"/><line x1="0" y1="-4.809619" x2="0" y2="4.80962" transform="translate(204.569135 84.386958)" fill="none" stroke="#3f5787" stroke-width="3"/><line x1="-25.797049" y1="0" x2="25.797048" y2="0" transform="translate(259.223899 79.577337)" fill="none" stroke="#3f5787" stroke-width="3"/><line x1="-25.797049" y1="0" x2="25.797048" y2="0" transform="translate(259.223899 89.196578)" fill="none" stroke="#3f5787" stroke-width="3"/><line x1="0" y1="-4.809619" x2="0" y2="4.809619" transform="translate(233.42685 84.386958)" fill="none" stroke="#3f5787" stroke-width="3"/><line x1="0" y1="-4.809619" x2="0" y2="4.809619" transform="translate(285.020947 84.386957)" fill="none" stroke="#3f5787" stroke-width="3"/><line x1="0" y1="-4.809619" x2="0" y2="4.809619" transform="translate(315.627616 84.386957)" fill="none" stroke="#3f5787" stroke-width="3"/><line x1="0" y1="-4.809619" x2="0" y2="4.80962" transform="translate(365.472761 84.386958)" fill="none" stroke="#3f5787" stroke-width="3"/><line x1="-24.922572" y1="0" x2="24.922573" y2="0" transform="translate(340.550189 79.577339)" fill="none" stroke="#3f5787" stroke-width="3"/><line x1="-24.922572" y1="0" x2="24.922573" y2="0" transform="translate(340.550189 89.196576)" fill="none" stroke="#3f5787" stroke-width="3"/><line x1="-24.485334" y1="0" x2="24.485334" y2="0" transform="translate(419.690286 79.577339)" fill="none" stroke="#3f5787" stroke-width="3"/><line x1="0" y1="-4.809619" x2="0" y2="4.80962" transform="translate(395.204952 84.386958)" fill="none" stroke="#3f5787" stroke-width="3"/><line x1="-24.485334" y1="0" x2="24.485334" y2="0.000001" transform="translate(419.690286 89.196576)" fill="none" stroke="#3f5787" stroke-width="3"/><line x1="0" y1="-4.809619" x2="0" y2="4.809619" transform="translate(444.17562 84.386957)" fill="none" stroke="#3f5787" stroke-width="3"/><line x1="0" y1="-99.253053" x2="0" y2="99.253053" transform="translate(99.194753 199.81782)" fill="none" stroke="#3f5787" stroke-width="3"/><line x1="-199.817818" y1="0" x2="199.817818" y2="0" transform="translate(299.012571 299.070873)" fill="none" stroke="#3f5787" stroke-width="3"/><line x1="0" y1="99.253053" x2="0" y2="-99.253053" transform="translate(498.830388 199.81782)" fill="none" stroke="#3f5787" stroke-width="3"/><line x1="-199.817818" y1="0" x2="199.817818" y2="0" transform="translate(299.012571 100.564767)" fill="none" stroke="#3f5787" stroke-width="3"/><line x1="0" y1="-51.594096" x2="0" y2="51.594096" transform="translate(289.83057 350.664968)" fill="none" stroke="#3f5787" stroke-width="3"/><line x1="-10.056476" y1="0" x2="10.056477" y2="0" transform="translate(299.887047 402.259064)" fill="none" stroke="#3f5787" stroke-width="3"/><line x1="0" y1="51.594096" x2="0" y2="-51.594095" transform="translate(309.943523 350.664969)" fill="none" stroke="#3f5787" stroke-width="3"/></svg>